<?xml version="1.0" encoding="UTF-8" standalone="no"?>
<!-- Created with Inkscape (http://www.inkscape.org/) -->

<svg
   xmlns:dc="http://purl.org/dc/elements/1.1/"
   xmlns:cc="http://creativecommons.org/ns#"
   xmlns:rdf="http://www.w3.org/1999/02/22-rdf-syntax-ns#"
   xmlns:svg="http://www.w3.org/2000/svg"
   xmlns="http://www.w3.org/2000/svg"
   xmlns:sodipodi="http://sodipodi.sourceforge.net/DTD/sodipodi-0.dtd"
   xmlns:inkscape="http://www.inkscape.org/namespaces/inkscape"
   width="102.80952mm"
   height="102.80952mm"
   viewBox="0 0 102.80952 102.80952"
   version="1.1"
   id="svg8"
   inkscape:export-filename="C:\Users\rsanz\Desktop\registrostabla\recursos\imagenes\del.png"
   inkscape:export-xdpi="3.9529414"
   inkscape:export-ydpi="3.9529414"
   inkscape:version="0.92.2 (5c3e80d, 2017-08-06)"
   sodipodi:docname="original.svg">
  <defs
     id="defs2" />
  <sodipodi:namedview
     id="base"
     pagecolor="#ffffff"
     bordercolor="#666666"
     borderopacity="1.0"
     inkscape:pageopacity="0.0"
     inkscape:pageshadow="2"
     inkscape:zoom="0.98963093"
     inkscape:cx="169.31299"
     inkscape:cy="163.38321"
     inkscape:document-units="mm"
     inkscape:current-layer="g36"
     showgrid="false"
     showguides="true"
     inkscape:guide-bbox="true"
     fit-margin-top="0"
     fit-margin-left="0"
     fit-margin-right="0"
     fit-margin-bottom="0"
     inkscape:snap-others="false"
     inkscape:object-nodes="false"
     inkscape:snap-nodes="false"
     inkscape:snap-global="false"
     inkscape:window-width="1366"
     inkscape:window-height="705"
     inkscape:window-x="-8"
     inkscape:window-y="-8"
     inkscape:window-maximized="1">
    <inkscape:grid
       type="xygrid"
       id="grid22" />
    <sodipodi:guide
       position="51.4,-9.0743487"
       orientation="1,0"
       id="guide24"
       inkscape:locked="false"
       inkscape:label=""
       inkscape:color="rgb(0,0,255)" />
    <sodipodi:guide
       position="-42.53601,51.4"
       orientation="0,1"
       id="guide26"
       inkscape:locked="false"
       inkscape:label=""
       inkscape:color="rgb(0,0,255)" />
  </sodipodi:namedview>
  <metadata
     id="metadata5">
    <rdf:RDF>
      <cc:Work
         rdf:about="">
        <dc:format>image/svg+xml</dc:format>
        <dc:type
           rdf:resource="http://purl.org/dc/dcmitype/StillImage" />
        <dc:title />
      </cc:Work>
    </rdf:RDF>
  </metadata>
  <g
     inkscape:label="add"
     inkscape:groupmode="layer"
     id="layer1"
     style="display:inline"
     transform="translate(-53.29464,-39.976196)">
    <circle
       style="opacity:0.31720031;fill:#00ff00;stroke-width:0.26458332"
       id="path10"
       cx="104.6994"
       cy="91.380959"
       r="51.404762" />
    <path
       style="opacity:1;fill:#00ff00;stroke-width:1.42857146"
       d="m 371.84364,537.83965 c -83.95831,-11.78087 -148.02302,-71.2479 -166.19142,-154.26451 -4.32891,-19.78003 -4.27474,-56.36169 0.11366,-76.76239 7.93488,-36.8874 24.6674,-68.70685 49.90551,-94.90297 30.02358,-31.16324 66.7801,-50.65293 108.75519,-57.66609 21.53669,-3.59832 56.57541,-2.32209 77.10161,2.80832 70.445,17.60732 123.56795,70.30042 141.9575,140.80884 3.65569,14.01646 4.39095,19.89898 5.00773,40.06499 0.86563,28.3026 -1.43415,45.73534 -9.02784,68.43246 -10.13224,30.28473 -26.37109,55.79694 -50.00421,78.55974 -27.98998,26.95917 -59.56742,43.35124 -97.84372,50.79137 -14.29234,2.77814 -46.87998,3.93952 -59.77401,2.13024 z"
       id="path12"
       inkscape:connector-curvature="0"
       transform="scale(0.26458333)" />
    <rect
       style="opacity:1;fill:#ffffff;stroke-width:0.17728259"
       id="rect14"
       width="65.770287"
       height="9.9473324"
       x="72.003799"
       y="86.218559" />
    <rect
       y="-109.32173"
       x="57.26453"
       height="9.9473324"
       width="65.770287"
       id="rect16"
       style="opacity:1;fill:#ffffff;stroke-width:0.1772826"
       transform="rotate(90)" />
  </g>
  <g
     transform="translate(-53.29464,-39.976196)"
     style="display:inline"
     id="g36"
     inkscape:groupmode="layer"
     inkscape:label="del">
    <circle
       r="51.404762"
       cy="91.380959"
       cx="104.6994"
       id="circle28"
       style="opacity:0.31720031;fill:#00ff00;stroke-width:0.26458332" />
    <path
       transform="scale(0.26458333)"
       inkscape:connector-curvature="0"
       id="path30"
       d="m 371.84364,537.83965 c -83.95831,-11.78087 -148.02302,-71.2479 -166.19142,-154.26451 -4.32891,-19.78003 -4.27474,-56.36169 0.11366,-76.76239 7.93488,-36.8874 24.6674,-68.70685 49.90551,-94.90297 30.02358,-31.16324 66.7801,-50.65293 108.75519,-57.66609 21.53669,-3.59832 56.57541,-2.32209 77.10161,2.80832 70.445,17.60732 123.56795,70.30042 141.9575,140.80884 3.65569,14.01646 4.39095,19.89898 5.00773,40.06499 0.86563,28.3026 -1.43415,45.73534 -9.02784,68.43246 -10.13224,30.28473 -26.37109,55.79694 -50.00421,78.55974 -27.98998,26.95917 -59.56742,43.35124 -97.84372,50.79137 -14.29234,2.77814 -46.87998,3.93952 -59.77401,2.13024 z"
       style="opacity:1;fill:#ff0000;stroke-width:1.42857146" />
    <rect
       y="86.218552"
       x="72.003799"
       height="10.749398"
       width="65.770287"
       id="rect32"
       style="opacity:1;fill:#ffffff;stroke-width:0.18429132" />
  </g>
</svg>
